<svg width="20" height="20" viewBox="0 0 20 20" fill="none" xmlns="http://www.w3.org/2000/svg">
<g opacity="0.1">
<path fill-rule="evenodd" clip-rule="evenodd" d="M9.1667 2.65832C9.22427 2.47578 9.33852 2.31635 9.49287 2.20318C9.64723 2.09001 9.83364 2.02899 10.025 2.02899C10.2164 2.02899 10.4028 2.09001 10.5572 2.20318C10.7116 2.31635 10.8258 2.47578 10.8834 2.65832L12.4334 7.42498H17.4334C17.6316 7.41749 17.8269 7.4751 17.9893 7.58902C18.1517 7.70293 18.2723 7.86689 18.3328 8.05583C18.3933 8.24478 18.3902 8.44832 18.3241 8.63536C18.258 8.82241 18.1325 8.98266 17.9667 9.09165L13.9084 12.0333L15.4584 16.8083C15.5197 16.9902 15.5212 17.1869 15.4628 17.3698C15.4043 17.5526 15.289 17.7119 15.1336 17.8246C14.9781 17.9372 14.7908 17.9972 14.5988 17.9957C14.4069 17.9943 14.2204 17.9316 14.0667 17.8167L10 14.8417L5.9417 17.7917C5.78796 17.9066 5.60151 17.9693 5.40957 17.9707C5.21764 17.9722 5.03028 17.9122 4.87485 17.7996C4.71942 17.6869 4.60406 17.5276 4.54563 17.3448C4.48719 17.1619 4.48874 16.9652 4.55004 16.7833L6.10004 12.0083L2.0417 9.06665C1.87594 8.95766 1.75041 8.79741 1.6843 8.61036C1.61819 8.42332 1.61514 8.21978 1.6756 8.03083C1.73606 7.84189 1.85672 7.67793 2.01914 7.56402C2.18155 7.4501 2.3768 7.39249 2.57504 7.39998H7.57504L9.1667 2.65832Z" stroke="white" stroke-width="1.5" stroke-linecap="round" stroke-linejoin="round"/>
</g>
</svg>
