<svg width="88" height="16" viewBox="0 0 88 16" fill="none" xmlns="http://www.w3.org/2000/svg">
<g clip-path="url(#clip0_17227_91269)">
<path fill-rule="evenodd" clip-rule="evenodd" d="M7.33312 2.12662C7.37917 1.98059 7.47057 1.85304 7.59406 1.7625C7.71754 1.67197 7.86667 1.62315 8.01979 1.62315C8.1729 1.62315 8.32203 1.67197 8.44552 1.7625C8.569 1.85304 8.6604 1.98059 8.70645 2.12662L9.94645 5.93995H13.9465C14.105 5.93395 14.2612 5.98004 14.3912 6.07117C14.5211 6.16231 14.6176 6.29347 14.666 6.44463C14.7144 6.59578 14.7119 6.75862 14.659 6.90825C14.6062 7.05789 14.5057 7.18609 14.3731 7.27328L11.1265 9.62661L12.3665 13.4466C12.4155 13.5921 12.4167 13.7495 12.37 13.8958C12.3232 14.042 12.2309 14.1695 12.1066 14.2596C11.9823 14.3497 11.8324 14.3977 11.6788 14.3965C11.5253 14.3954 11.3761 14.3452 11.2531 14.2533L7.99979 11.8733L4.75312 14.2333C4.63012 14.3252 4.48096 14.3754 4.32741 14.3765C4.17387 14.3777 4.02398 14.3297 3.89963 14.2396C3.77529 14.1495 3.68301 14.022 3.63626 13.8758C3.58951 13.7295 3.59075 13.5721 3.63979 13.4266L4.87979 9.60661L1.63312 7.25328C1.50051 7.16609 1.40009 7.03789 1.3472 6.88825C1.29431 6.73862 1.29187 6.57578 1.34024 6.42463C1.38861 6.27347 1.48513 6.14231 1.61506 6.05117C1.745 5.96004 1.90119 5.91395 2.05979 5.91995H6.05979L7.33312 2.12662Z" fill="#FDBC15"/>
<path fill-rule="evenodd" clip-rule="evenodd" d="M25.3331 2.12662C25.3792 1.98059 25.4706 1.85304 25.5941 1.7625C25.7175 1.67197 25.8667 1.62315 26.0198 1.62315C26.1729 1.62315 26.322 1.67197 26.4455 1.7625C26.569 1.85304 26.6604 1.98059 26.7065 2.12662L27.9465 5.93995H31.9465C32.105 5.93395 32.2612 5.98004 32.3912 6.07117C32.5211 6.16231 32.6176 6.29347 32.666 6.44463C32.7144 6.59578 32.7119 6.75862 32.659 6.90825C32.6062 7.05789 32.5057 7.18609 32.3731 7.27328L29.1265 9.62661L30.3665 13.4466C30.4155 13.5921 30.4167 13.7495 30.37 13.8958C30.3232 14.042 30.2309 14.1695 30.1066 14.2596C29.9823 14.3497 29.8324 14.3977 29.6788 14.3965C29.5253 14.3954 29.3761 14.3452 29.2531 14.2533L25.9998 11.8733L22.7531 14.2333C22.6301 14.3252 22.481 14.3754 22.3274 14.3765C22.1739 14.3777 22.024 14.3297 21.8996 14.2396C21.7753 14.1495 21.683 14.022 21.6363 13.8758C21.5895 13.7295 21.5907 13.5721 21.6398 13.4266L22.8798 9.60661L19.6331 7.25328C19.5005 7.16609 19.4001 7.03789 19.3472 6.88825C19.2943 6.73862 19.2919 6.57578 19.3402 6.42463C19.3886 6.27347 19.4851 6.14231 19.6151 6.05117C19.745 5.96004 19.9012 5.91395 20.0598 5.91995H24.0598L25.3331 2.12662Z" fill="#FDBC15"/>
<path fill-rule="evenodd" clip-rule="evenodd" d="M43.3331 2.12662C43.3792 1.98059 43.4706 1.85304 43.5941 1.7625C43.7175 1.67197 43.8667 1.62315 44.0198 1.62315C44.1729 1.62315 44.322 1.67197 44.4455 1.7625C44.569 1.85304 44.6604 1.98059 44.7065 2.12662L45.9465 5.93995H49.9465C50.105 5.93395 50.2612 5.98004 50.3912 6.07117C50.5211 6.16231 50.6176 6.29347 50.666 6.44463C50.7144 6.59578 50.7119 6.75862 50.659 6.90825C50.6062 7.05789 50.5057 7.18609 50.3731 7.27328L47.1265 9.62661L48.3665 13.4466C48.4155 13.5921 48.4167 13.7495 48.37 13.8958C48.3232 14.042 48.2309 14.1695 48.1066 14.2596C47.9823 14.3497 47.8324 14.3977 47.6788 14.3965C47.5253 14.3954 47.3761 14.3452 47.2531 14.2533L43.9998 11.8733L40.7531 14.2333C40.6301 14.3252 40.481 14.3754 40.3274 14.3765C40.1739 14.3777 40.024 14.3297 39.8996 14.2396C39.7753 14.1495 39.683 14.022 39.6363 13.8758C39.5895 13.7295 39.5907 13.5721 39.6398 13.4266L40.8798 9.60661L37.6331 7.25328C37.5005 7.16609 37.4001 7.03789 37.3472 6.88825C37.2943 6.73862 37.2919 6.57578 37.3402 6.42463C37.3886 6.27347 37.4851 6.14231 37.6151 6.05117C37.745 5.96004 37.9012 5.91395 38.0598 5.91995H42.0598L43.3331 2.12662Z" fill="#FDBC15"/>
<path fill-rule="evenodd" clip-rule="evenodd" d="M61.3331 2.12662C61.3792 1.98059 61.4706 1.85304 61.5941 1.7625C61.7175 1.67197 61.8667 1.62315 62.0198 1.62315C62.1729 1.62315 62.322 1.67197 62.4455 1.7625C62.569 1.85304 62.6604 1.98059 62.7065 2.12662L63.9465 5.93995H67.9465C68.105 5.93395 68.2612 5.98004 68.3912 6.07117C68.5211 6.16231 68.6176 6.29347 68.666 6.44463C68.7144 6.59578 68.7119 6.75862 68.659 6.90825C68.6062 7.05789 68.5057 7.18609 68.3731 7.27328L65.1265 9.62661L66.3665 13.4466C66.4155 13.5921 66.4167 13.7495 66.37 13.8958C66.3232 14.042 66.2309 14.1695 66.1066 14.2596C65.9823 14.3497 65.8324 14.3977 65.6788 14.3965C65.5253 14.3954 65.3761 14.3452 65.2531 14.2533L61.9998 11.8733L58.7531 14.2333C58.6301 14.3252 58.481 14.3754 58.3274 14.3765C58.1739 14.3777 58.024 14.3297 57.8996 14.2396C57.7753 14.1495 57.683 14.022 57.6363 13.8758C57.5895 13.7295 57.5907 13.5721 57.6398 13.4266L58.8798 9.60661L55.6331 7.25328C55.5005 7.16609 55.4001 7.03789 55.3472 6.88825C55.2943 6.73862 55.2919 6.57578 55.3402 6.42463C55.3886 6.27347 55.4851 6.14231 55.6151 6.05117C55.745 5.96004 55.9012 5.91395 56.0598 5.91995H60.0598L61.3331 2.12662Z" fill="#FDBC15"/>
<path fill-rule="evenodd" clip-rule="evenodd" d="M79.3331 2.12662C79.3792 1.98059 79.4706 1.85304 79.5941 1.7625C79.7175 1.67197 79.8667 1.62315 80.0198 1.62315C80.1729 1.62315 80.322 1.67197 80.4455 1.7625C80.569 1.85304 80.6604 1.98059 80.7065 2.12662L81.9465 5.93995H85.9465C86.105 5.93395 86.2612 5.98004 86.3912 6.07117C86.5211 6.16231 86.6176 6.29347 86.666 6.44463C86.7144 6.59578 86.7119 6.75862 86.659 6.90825C86.6062 7.05789 86.5057 7.18609 86.3731 7.27328L83.1265 9.62661L84.3665 13.4466C84.4155 13.5921 84.4167 13.7495 84.37 13.8958C84.3232 14.042 84.2309 14.1695 84.1066 14.2596C83.9823 14.3497 83.8324 14.3977 83.6788 14.3965C83.5253 14.3954 83.3761 14.3452 83.2531 14.2533L79.9998 11.8733L76.7531 14.2333C76.6301 14.3252 76.481 14.3754 76.3274 14.3765C76.1739 14.3777 76.024 14.3297 75.8996 14.2396C75.7753 14.1495 75.683 14.022 75.6363 13.8758C75.5895 13.7295 75.5907 13.5721 75.6398 13.4266L76.8798 9.60661L73.6331 7.25328C73.5005 7.16609 73.4001 7.03789 73.3472 6.88825C73.2943 6.73862 73.2919 6.57578 73.3402 6.42463C73.3886 6.27347 73.4851 6.14231 73.6151 6.05117C73.745 5.96004 73.9012 5.91395 74.0598 5.91995H78.0598L79.3331 2.12662Z" stroke="#D1D1D1" stroke-linecap="round" stroke-linejoin="round"/>
</g>
<defs>
<clipPath id="clip0_17227_91269">
<rect width="88" height="16" fill="white"/>
</clipPath>
</defs>
</svg>
