<svg width="88" height="16" viewBox="0 0 88 16" fill="none" xmlns="http://www.w3.org/2000/svg">
<g clip-path="url(#clip0_17227_91249)">
<path fill-rule="evenodd" clip-rule="evenodd" d="M7.33312 2.1266C7.37917 1.98057 7.47057 1.85303 7.59406 1.76249C7.71754 1.67195 7.86667 1.62314 8.01979 1.62314C8.1729 1.62314 8.32203 1.67195 8.44552 1.76249C8.569 1.85303 8.6604 1.98057 8.70645 2.1266L9.94645 5.93993H13.9465C14.105 5.93394 14.2612 5.98003 14.3912 6.07116C14.5211 6.16229 14.6176 6.29345 14.666 6.44461C14.7144 6.59577 14.7119 6.7586 14.659 6.90824C14.6062 7.05787 14.5057 7.18608 14.3731 7.27327L11.1265 9.6266L12.3665 13.4466C12.4155 13.5921 12.4167 13.7495 12.37 13.8957C12.3232 14.042 12.2309 14.1695 12.1066 14.2596C11.9823 14.3497 11.8324 14.3977 11.6788 14.3965C11.5253 14.3954 11.3761 14.3452 11.2531 14.2533L7.99979 11.8733L4.75312 14.2333C4.63012 14.3252 4.48096 14.3754 4.32741 14.3765C4.17387 14.3777 4.02398 14.3297 3.89963 14.2396C3.77529 14.1495 3.68301 14.022 3.63626 13.8757C3.58951 13.7295 3.59075 13.5721 3.63979 13.4266L4.87979 9.6066L1.63312 7.25327C1.50051 7.16608 1.40009 7.03787 1.3472 6.88824C1.29431 6.7386 1.29187 6.57577 1.34024 6.42461C1.38861 6.27345 1.48513 6.14229 1.61506 6.05116C1.745 5.96003 1.90119 5.91394 2.05979 5.91993H6.05979L7.33312 2.1266Z" fill="#FDBC15"/>
<path fill-rule="evenodd" clip-rule="evenodd" d="M25.3331 2.1266C25.3792 1.98057 25.4706 1.85303 25.5941 1.76249C25.7175 1.67195 25.8667 1.62314 26.0198 1.62314C26.1729 1.62314 26.322 1.67195 26.4455 1.76249C26.569 1.85303 26.6604 1.98057 26.7065 2.1266L27.9465 5.93993H31.9465C32.105 5.93394 32.2612 5.98003 32.3912 6.07116C32.5211 6.16229 32.6176 6.29345 32.666 6.44461C32.7144 6.59577 32.7119 6.7586 32.659 6.90824C32.6062 7.05787 32.5057 7.18608 32.3731 7.27327L29.1265 9.6266L30.3665 13.4466C30.4155 13.5921 30.4167 13.7495 30.37 13.8957C30.3232 14.042 30.2309 14.1695 30.1066 14.2596C29.9823 14.3497 29.8324 14.3977 29.6788 14.3965C29.5253 14.3954 29.3761 14.3452 29.2531 14.2533L25.9998 11.8733L22.7531 14.2333C22.6301 14.3252 22.481 14.3754 22.3274 14.3765C22.1739 14.3777 22.024 14.3297 21.8996 14.2396C21.7753 14.1495 21.683 14.022 21.6363 13.8757C21.5895 13.7295 21.5907 13.5721 21.6398 13.4266L22.8798 9.6066L19.6331 7.25327C19.5005 7.16608 19.4001 7.03787 19.3472 6.88824C19.2943 6.7386 19.2919 6.57577 19.3402 6.42461C19.3886 6.27345 19.4851 6.14229 19.6151 6.05116C19.745 5.96003 19.9012 5.91394 20.0598 5.91993H24.0598L25.3331 2.1266Z" fill="#FDBC15"/>
<path fill-rule="evenodd" clip-rule="evenodd" d="M43.3331 2.1266C43.3792 1.98057 43.4706 1.85303 43.5941 1.76249C43.7175 1.67195 43.8667 1.62314 44.0198 1.62314C44.1729 1.62314 44.322 1.67195 44.4455 1.76249C44.569 1.85303 44.6604 1.98057 44.7065 2.1266L45.9465 5.93993H49.9465C50.105 5.93394 50.2612 5.98003 50.3912 6.07116C50.5211 6.16229 50.6176 6.29345 50.666 6.44461C50.7144 6.59577 50.7119 6.7586 50.659 6.90824C50.6062 7.05787 50.5057 7.18608 50.3731 7.27327L47.1265 9.6266L48.3665 13.4466C48.4155 13.5921 48.4167 13.7495 48.37 13.8957C48.3232 14.042 48.2309 14.1695 48.1066 14.2596C47.9823 14.3497 47.8324 14.3977 47.6788 14.3965C47.5253 14.3954 47.3761 14.3452 47.2531 14.2533L43.9998 11.8733L40.7531 14.2333C40.6301 14.3252 40.481 14.3754 40.3274 14.3765C40.1739 14.3777 40.024 14.3297 39.8996 14.2396C39.7753 14.1495 39.683 14.022 39.6363 13.8757C39.5895 13.7295 39.5907 13.5721 39.6398 13.4266L40.8798 9.6066L37.6331 7.25327C37.5005 7.16608 37.4001 7.03787 37.3472 6.88824C37.2943 6.7386 37.2919 6.57577 37.3402 6.42461C37.3886 6.27345 37.4851 6.14229 37.6151 6.05116C37.745 5.96003 37.9012 5.91394 38.0598 5.91993H42.0598L43.3331 2.1266Z" fill="#FDBC15"/>
<path fill-rule="evenodd" clip-rule="evenodd" d="M61.3331 2.1266C61.3792 1.98057 61.4706 1.85303 61.5941 1.76249C61.7175 1.67195 61.8667 1.62314 62.0198 1.62314C62.1729 1.62314 62.322 1.67195 62.4455 1.76249C62.569 1.85303 62.6604 1.98057 62.7065 2.1266L63.9465 5.93993H67.9465C68.105 5.93394 68.2612 5.98003 68.3912 6.07116C68.5211 6.16229 68.6176 6.29345 68.666 6.44461C68.7144 6.59577 68.7119 6.7586 68.659 6.90824C68.6062 7.05787 68.5057 7.18608 68.3731 7.27327L65.1265 9.6266L66.3665 13.4466C66.4155 13.5921 66.4167 13.7495 66.37 13.8957C66.3232 14.042 66.2309 14.1695 66.1066 14.2596C65.9823 14.3497 65.8324 14.3977 65.6788 14.3965C65.5253 14.3954 65.3761 14.3452 65.2531 14.2533L61.9998 11.8733L58.7531 14.2333C58.6301 14.3252 58.481 14.3754 58.3274 14.3765C58.1739 14.3777 58.024 14.3297 57.8996 14.2396C57.7753 14.1495 57.683 14.022 57.6363 13.8757C57.5895 13.7295 57.5907 13.5721 57.6398 13.4266L58.8798 9.6066L55.6331 7.25327C55.5005 7.16608 55.4001 7.03787 55.3472 6.88824C55.2943 6.7386 55.2919 6.57577 55.3402 6.42461C55.3886 6.27345 55.4851 6.14229 55.6151 6.05116C55.745 5.96003 55.9012 5.91394 56.0598 5.91993H60.0598L61.3331 2.1266Z" fill="#FDBC15"/>
<path fill-rule="evenodd" clip-rule="evenodd" d="M79.3331 2.1266C79.3792 1.98057 79.4706 1.85303 79.5941 1.76249C79.7175 1.67195 79.8667 1.62314 80.0198 1.62314C80.1729 1.62314 80.322 1.67195 80.4455 1.76249C80.569 1.85303 80.6604 1.98057 80.7065 2.1266L81.9465 5.93993H85.9465C86.105 5.93394 86.2612 5.98003 86.3912 6.07116C86.5211 6.16229 86.6176 6.29345 86.666 6.44461C86.7144 6.59577 86.7119 6.7586 86.659 6.90824C86.6062 7.05787 86.5057 7.18608 86.3731 7.27327L83.1265 9.6266L84.3665 13.4466C84.4155 13.5921 84.4167 13.7495 84.37 13.8957C84.3232 14.042 84.2309 14.1695 84.1066 14.2596C83.9823 14.3497 83.8324 14.3977 83.6788 14.3965C83.5253 14.3954 83.3761 14.3452 83.2531 14.2533L79.9998 11.8733L76.7531 14.2333C76.6301 14.3252 76.481 14.3754 76.3274 14.3765C76.1739 14.3777 76.024 14.3297 75.8996 14.2396C75.7753 14.1495 75.683 14.022 75.6363 13.8757C75.5895 13.7295 75.5907 13.5721 75.6398 13.4266L76.8798 9.6066L73.6331 7.25327C73.5005 7.16608 73.4001 7.03787 73.3472 6.88824C73.2943 6.7386 73.2919 6.57577 73.3402 6.42461C73.3886 6.27345 73.4851 6.14229 73.6151 6.05116C73.745 5.96003 73.9012 5.91394 74.0598 5.91993H78.0598L79.3331 2.1266Z" fill="#FDBC15"/>
</g>
<defs>
<clipPath id="clip0_17227_91249">
<rect width="88" height="16" fill="white"/>
</clipPath>
</defs>
</svg>
