<svg width="11" height="10" viewBox="0 0 11 10" fill="none" xmlns="http://www.w3.org/2000/svg">
<path fill-rule="evenodd" clip-rule="evenodd" d="M6.1551 1.44502C6.63249 0.967627 7.27997 0.699432 7.9551 0.699432C8.63023 0.699432 9.27771 0.967627 9.7551 1.44502C10.2325 1.92241 10.5007 2.56989 10.5007 3.24502C10.5007 3.92015 10.2325 4.56763 9.7551 5.04502L9.1001 5.70002L5.5001 9.30002L1.9001 5.70002L1.2451 5.04502C0.767706 4.56763 0.499512 3.92015 0.499512 3.24502C0.499512 2.56989 0.767706 1.92241 1.2451 1.44502C1.72249 0.967627 2.36997 0.699432 3.0451 0.699432C3.72023 0.699432 4.36771 0.967627 4.8451 1.44502L5.5001 2.10002L6.1551 1.44502Z" stroke="#151515" stroke-linecap="round" stroke-linejoin="bevel"/>
</svg>
