<svg width="25" height="22" viewBox="0 0 25 22" fill="none" xmlns="http://www.w3.org/2000/svg">
<path fill-rule="evenodd" clip-rule="evenodd" d="M13.8365 3.56042C14.8356 2.5613 16.1907 2 17.6037 2C19.0166 2 20.3717 2.5613 21.3708 3.56042C22.37 4.55954 22.9313 5.91464 22.9313 7.3276C22.9313 8.74057 22.37 10.0957 21.3708 11.0948L20 12.4656L12.4656 20L4.93126 12.4656L3.56042 11.0948C2.5613 10.0957 2 8.74057 2 7.3276C2 5.91464 2.5613 4.55954 3.56042 3.56042C4.55954 2.5613 5.91464 2 7.32761 2C8.74058 2 10.0957 2.5613 11.0948 3.56042L12.4656 4.93126L13.8365 3.56042Z" stroke="#151515" stroke-width="2.5" stroke-linecap="round" stroke-linejoin="round"/>
</svg>
