<?xml version="1.0" encoding="utf-8"?>
<!-- Generator: Adobe Illustrator 23.0.0, SVG Export Plug-In . SVG Version: 6.00 Build 0)  -->
<svg version="1.1" id="Слой_1" xmlns="http://www.w3.org/2000/svg" xmlns:xlink="http://www.w3.org/1999/xlink" x="0px" y="0px"
	 viewBox="0 0 237 180" style="enable-background:new 0 0 237 180;" xml:space="preserve">
<style type="text/css">
	.st0{fill:#F9F9F9;}
	.st1{opacity:0.2;}
	.st2{opacity:0.4;}
	.st3{opacity:0.4;fill:#FDFDFE;}
</style>
<path class="st0" d="M12,0h213c6.6,0,12,5.4,12,12v156c0,6.6-5.4,12-12,12H12c-6.6,0-12-5.4-12-12V12C0,5.4,5.4,0,12,0z"/>
<g class="st1">
	<path class="st2" d="M85.2,105.2c0.8,0.4,1.6,0.6,2.5,0.4c0.6,0.2,1.2,0.1,1.7-0.1c0,0.1,0,0.1,0,0.2c0,0,0.1,0,0.2,0
		c1.8-0.5,2.4-1.7,2-3.8c-0.5-2.6-1.1-4.5-1.9-5.9c-1.4-3.7-3.1-7.2-5.1-10.5c-0.1-0.1-0.2-0.2-0.3-0.1c-2.6,0.6-4.1-0.3-4.5-2.5
		c-0.2-0.9,0-1.7,0.4-2.4c0.6-0.9,1.4-1.3,2.4-1.4c1.3-0.1,2.3,0.4,3,1.4c0.7,1,0.8,2.3,0.2,3.9c-0.1,0.3,0,0.7,0.2,0.9
		c2.4,2.3,5,4.2,7.9,5.9c1.8,1,3.6,1.7,5.3,2c3.2,0.6,5.6-0.4,7.2-3.1c0.7-1.1,1.2-2.2,1.5-3.3c0.2-0.6,0.4-1.8,0.7-3.5
		c0.7-3.6,0.9-7.7,0.6-12.2c-0.1-1.8-0.6-3.2-1.6-4.3c-0.7-0.8-1.9-1.6-3.6-2.4c-1.6-0.8-3.4-1.3-5.3-1.4c-0.1,0-0.2,0-0.3-0.1
		c-0.2-0.1-0.1-0.2,0.1-0.4c1.3-0.6,2.4-1.6,3.3-2.8c1.3-1.9,2-3.9,2.1-5.9c0.1-1.1,0.1-1.8,0.2-2.3c0-0.1,0.1-0.3,0.2-0.3
		c0.8-0.2,1.4,0,1.8,0.7c0.3,0.5,0.4,0.8,0.4,0.8c1.3,1.8,2.9,3.2,4.9,4.1c1.4,0.7,2.8,0.9,4.3,0.7c0.7-0.1,0.7,0,0.1,0.4
		c-2.3,1.5-4.1,3.5-5.3,6.1c-0.4,0.9-0.7,1.8-0.8,2.8c-0.1,0.8,0.1,1.7,0.5,2.7c2.3,5.4,5.4,10,9.3,14c0.9,0.9,2,1.7,3.3,2.4
		c1.2,0.6,2.3,0.8,3.4,0.7c2.4-0.2,4.4-1.5,6-3.7c2.7-3.6,4.6-7.6,5.7-12c0-0.2,0-0.4-0.2-0.5c-1.6-0.9-2.2-2.1-1.9-3.6
		c0.2-0.9,0.6-1.6,1.2-2.2c0.7-0.6,1.6-0.8,2.7-0.5c0.9,0.2,1.6,0.7,2.1,1.4c0.4,0.7,0.5,1.4,0.4,2.3c-0.2,1.5-1.1,2.4-2.9,2.7
		c-0.2,0-0.3,0.2-0.3,0.4c0.1,4.7,0.4,9.2,1.1,13.4c0.1,0.8,0.5,2.2,1,4.2c0.4,1.2,1.1,2.1,2.1,2.7c0.1,0.1,0.3,0.1,0.4,0.1
		c1.5-0.3,2.9-1,4.2-2.2c2.6-2.3,4.9-4.8,6.8-7.6c0.2-0.2,0.1-0.5,0-0.8c-0.6-0.7-0.9-1.4-1-2.2c-0.1-0.8,0.1-1.5,0.6-2.2
		c0.4-0.5,0.8-0.9,1.4-1.1c0.5-0.2,1.1-0.3,1.7-0.2c1.4,0.2,2.3,0.9,2.7,2.2c0.3,1.2,0.1,2.2-0.6,3.1c-0.7,0.9-1.7,1.3-3.1,1.3
		c-0.1,0-0.2,0.1-0.3,0.2c-2.4,7.2-4.2,14.4-5.2,21.8c0,0.3-0.3,0.4-0.5,0.4c-6.7-1.1-13.4-1.2-20.1-0.4c-2.8,0.4-5.7,0.9-8.7,1.5
		c-11.1,2.5-21.2,7.4-30.4,14.6c-0.2,0.2-0.5,0.1-0.7-0.1c-4.6-5.8-9.7-11.3-15.3-16.2c-0.2-0.2-0.5-0.2-0.7-0.1
		c-0.9,0.5-1.8,0.7-2.7,0.5c-0.8-0.2-1.5-0.6-2-1.4c-0.8-1.1-0.8-2.2-0.1-3.4c0.5-0.8,1.2-1.3,2-1.6c1-0.3,1.9-0.1,2.8,0.5
		c0.6,0.4,1,1,1.2,1.8c0.2,0.7,0.2,1.4,0.1,2.1c0,0.1,0,0.3,0.2,0.3C79.1,103.6,82.1,104.6,85.2,105.2z"/>
	<path class="st3" d="M57,59.2c0.1,0.3,0.2,0.6,0.3,1.1c0.1,0.4,0,0.6-0.4,0.7c0,0,0,0,0,0c0,0,0,0,0,0c0.1-0.2,0.2-0.4,0.3-0.6
		c0,0,0,0,0-0.1L57,59.2z"/>
	<path class="st3" d="M56.6,60.9c-0.2,0-0.3,0-0.5-0.1C56.3,60.8,56.5,60.8,56.6,60.9z"/>
</g>
</svg>
