<svg width="16" height="17" viewBox="0 0 16 17" fill="none" xmlns="http://www.w3.org/2000/svg">
<path fill-rule="evenodd" clip-rule="evenodd" d="M8.8733 3.75998C9.50982 3.12346 10.3731 2.76587 11.2733 2.76587C12.1735 2.76587 13.0368 3.12346 13.6733 3.75998C14.3098 4.3965 14.6674 5.25981 14.6674 6.15998C14.6674 7.06016 14.3098 7.92346 13.6733 8.55998L12.8 9.43331L7.99997 14.2333L3.19997 9.43331L2.32663 8.55998C1.69011 7.92346 1.33252 7.06016 1.33252 6.15998C1.33252 5.25981 1.69011 4.3965 2.32663 3.75998C2.96315 3.12346 3.82646 2.76587 4.72663 2.76587C5.62681 2.76587 6.49011 3.12346 7.12663 3.75998L7.99997 4.63331L8.8733 3.75998Z" stroke="#151515" stroke-width="2.5" stroke-linecap="round" stroke-linejoin="round"/>
</svg>
